PathFileType	4	(X/Y/Z)	/Users/itak/Documents/Research/Walk-IL/dataset/trc/00192_00008.trc
DataRate	CameraRate	NumFrames	NumMarkers	Units	OrigDataRate	OrigDataStartFrame	OrigNumFrames
100.000000	100.000000	4	53	mm	100.000000	397	794
Frame#	Time	RPSI			LPSI			L3			STRN			T10			C7			CLAV			RBAK			LBAK			LSHO			LUPA			LAEL			LAOL			LWTS			LWPS			LFRA			LIFD			LHPS			LHTS			RSHO			RUPA			RAEL			RAOL			RWTS			RWPS			RFRA			RIFD			RHTS			RHPS			RBHD			LFHD			RFHD			LBHD			LHIP			RHIP			RASI			LASI			LKNE			LTHI			LANK			LTIP			LTOE			LMT1			LMT5			LHEE			RKNE			RTHI			RANK			RTIP			RTOE			RMT1			RMT5			RHEE			
		X1	Y1	Z1	X2	Y2	Z2	X3	Y3	Z3	X4	Y4	Z4	X5	Y5	Z5	X6	Y6	Z6	X7	Y7	Z7	X8	Y8	Z8	X9	Y9	Z9	X10	Y10	Z10	X11	Y11	Z11	X12	Y12	Z12	X13	Y13	Z13	X14	Y14	Z14	X15	Y15	Z15	X16	Y16	Z16	X17	Y17	Z17	X18	Y18	Z18	X19	Y19	Z19	X20	Y20	Z20	X21	Y21	Z21	X22	Y22	Z22	X23	Y23	Z23	X24	Y24	Z24	X25	Y25	Z25	X26	Y26	Z26	X27	Y27	Z27	X28	Y28	Z28	X29	Y29	Z29	X30	Y30	Z30	X31	Y31	Z31	X32	Y32	Z32	X33	Y33	Z33	X34	Y34	Z34	X35	Y35	Z35	X36	Y36	Z36	X37	Y37	Z37	X38	Y38	Z38	X39	Y39	Z39	X40	Y40	Z40	X41	Y41	Z41	X42	Y42	Z42	X43	Y43	Z43	X44	Y44	Z44	X45	Y45	Z45	X46	Y46	Z46	X47	Y47	Z47	X48	Y48	Z48	X49	Y49	Z49	X50	Y50	Z50	X51	Y51	Z51	X52	Y52	Z52	X53	Y53	Z53	

398	3.97	-35.5498161315918	1012.191528320312	-871.9656372070312	-44.18113327026367	1024.283203125	-994.599365234375	-38.5916862487793	1056.544555664062	-931.570556640625	230.7300415039062	1255.781494140625	-931.2903442382812	-68.02192687988281	1217.544799804688	-937.8870239257812	12.62274646759033	1482.800048828125	-934.3595581054688	209.8368988037109	1371.419799804688	-931.5620727539062	-66.36589813232422	1305.102172851562	-839.5613403320312	5.66489839553833	1466.271606445312	-1035.829956054688	84.07890319824219	1456.237426757812	-1111.23388671875	49.23257446289062	1333.00732421875	-1196.772216796875	71.26004028320312	1125.398315429688	-1249.938354492188	34.23568344116211	1091.398193359375	-1178.53076171875	222.2354736328125	918.090576171875	-1269.006958007812	139.1180267333984	888.577392578125	-1304.88525390625	99.57839965820312	1021.539306640625	-1282.8662109375	251.5023956298828	759.4529418945312	-1269.952758789062	171.080322265625	827.6608276367188	-1321.192993164062	242.0199127197266	849.5532836914062	-1309.323486328125	68.14327239990234	1444.925903320312	-753.2199096679688	36.80242919921875	1376.85888671875	-692.9014282226562	-26.91592216491699	1095.188232421875	-665.6062622070312	-10.06490612030029	1089.040649414062	-762.3048706054688	65.19275665283203	847.8676147460938	-661.801025390625	-19.90199089050293	845.258056640625	-635.0316772460938	-19.60764694213867	1020.954223632812	-645.8289794921875	42.55382919311523	658.0446166992188	-691.7742919921875	66.71430206298828	749.4963989257812	-653.151611328125	-11.55304431915283	758.148681640625	-636.1467895507812	51.65546798706055	1622.271118164062	-854.7842407226562	241.0510864257812	1696.292602539062	-930.8585205078125	208.5912780761719	1677.250122070312	-806.9520874023438	75.09493255615234	1649.509887695312	-987.0216064453125	37.10292816162109	972.4874877929688	-1125.080688476562	129.3564300537109	968.9534301757812	-765.4528198242188	204.5426330566406	997.256103515625	-829.0865478515625	173.6830291748047	1001.601013183594	-1086.258544921875	-65.02032470703125	499.2125854492188	-1113.767211914062	-22.41235733032227	638.1842651367188	-1130.845092773438	-371.6847534179688	115.9617767333984	-1078.0146484375	-213.2889251708984	316.7857055664062	-1110.364013671875	-189.6110687255859	40.49264526367188	-1107.783935546875	-209.9729766845703	48.26116943359375	-1051.623901367188	-302.0378112792969	48.35434341430664	-1136.8203125	-389.211181640625	150.7264556884766	-1001.937438964844	313.7925109863281	511.236572265625	-824.8282470703125	240.7648468017578	768.998779296875	-773.2626342773438	359.3350524902344	30.17448234558105	-881.5385131835938	360.6570739746094	400.4143676757812	-847.8931884765625	566.804931640625	83.24104309082031	-859.0939331054688	534.4166259765625	67.27721405029297	-914.4036254882812	455.4978637695312	43.06370162963867	-821.9602661132812	329.3185729980469	28.50030136108398	-959.8983764648438	
399	3.98	-23.1378059387207	1014.75927734375	-871.2880249023438	-30.49795722961426	1026.465087890625	-994.1738891601562	-25.80483818054199	1058.824584960938	-931.0579833984375	242.8035888671875	1258.603759765625	-928.0484008789062	-55.7805061340332	1219.253173828125	-937.6983032226562	23.87533760070801	1484.764526367188	-933.0008544921875	221.3334808349609	1374.123779296875	-928.4971313476562	-55.05523681640625	1306.762329101562	-839.0961303710938	17.91899108886719	1468.3984375	-1034.49267578125	97.00658416748047	1458.682861328125	-1109.321044921875	62.27824783325195	1335.08837890625	-1194.6884765625	82.52214813232422	1126.76416015625	-1245.586303710938	45.64488983154297	1093.767822265625	-1173.665161132812	230.9707641601562	917.5672607421875	-1263.5849609375	147.4784088134766	888.75048828125	-1298.847045898438	109.5557556152344	1022.361938476562	-1277.74365234375	258.2236633300781	758.5620727539062	-1263.164672851562	178.5220031738281	827.2537841796875	-1314.693725585938	249.8027191162109	848.3631591796875	-1303.34033203125	77.82810974121094	1447.153564453125	-751.4891357421875	46.17037963867188	1378.985717773438	-691.422119140625	-17.18779563903809	1097.272338867188	-664.7664184570312	0.559137225151062	1091.240112304688	-761.3176879882812	75.46431732177734	850.082275390625	-660.5270385742188	-9.789607048034668	847.3245849609375	-634.2594604492188	-9.82258415222168	1023.029602050781	-644.9590454101562	53.20457077026367	660.2238159179688	-691.05859375	77.04216003417969	751.6595458984375	-652.0875854492188	-1.28387188911438	760.1956787109375	-635.4585571289062	62.18033218383789	1624.435668945312	-852.4739990234375	252.0921478271484	1698.677124023438	-926.8705444335938	218.7909698486328	1679.305541992188	-803.3606567382812	86.58981323242188	1652.117797851562	-984.4099731445312	51.83197402954102	974.097900390625	-1123.666381835938	140.8743591308594	972.0794067382812	-763.1573486328125	216.432861328125	1000.477172851562	-826.0546264648438	187.8998413085938	1003.47412109375	-1083.357055664062	-48.91120529174805	499.6303405761719	-1116.098876953125	-6.666410446166992	639.0234985351562	-1131.340576171875	-364.732421875	123.5681533813477	-1079.31689453125	-201.3115539550781	320.18896484375	-1112.759155273438	-189.7984619140625	40.42832946777344	-1107.901123046875	-207.7321319580078	48.33254241943359	-1052.199096679688	-299.2651672363281	51.63688659667969	-1137.423828125	-380.1965026855469	160.0792999267578	-1003.6337890625	323.8675842285156	512.8211669921875	-824.3919677734375	252.2176513671875	771.1043701171875	-770.4600830078125	360.5552978515625	30.78494834899902	-881.4859008789062	369.2579345703125	400.8489990234375	-848.0977783203125	569.6973266601562	79.69436645507812	-861.9473266601562	536.1256103515625	64.70001220703125	-916.7001953125	457.900390625	42.51700973510742	-823.1768188476562	329.0682678222656	29.51025009155273	-959.5444946289062	
400	3.99	-10.82727909088135	1017.280212402344	-870.478271484375	-17.04478454589844	1028.6259765625	-993.5834350585938	-13.19762802124023	1061.0888671875	-930.3753051757812	254.7615356445312	1261.507446289062	-924.6939697265625	-43.59884262084961	1221.023559570312	-937.4818115234375	35.01819229125977	1486.76220703125	-931.7239379882812	232.7229614257812	1376.914184570312	-925.3856201171875	-43.83512496948242	1308.482055664062	-838.6981811523438	30.10811424255371	1470.548583984375	-1033.228393554688	109.9261322021484	1461.183959960938	-1107.40673828125	75.46415710449219	1337.239990234375	-1192.649536132812	93.94254302978516	1128.2099609375	-1241.086547851562	57.19842147827148	1096.2626953125	-1168.653686523438	239.5873260498047	916.9695434570312	-1257.970581054688	155.6265869140625	888.9475708007812	-1292.614379882812	119.5806732177734	1023.264282226562	-1272.450561523438	264.5681457519531	757.5936889648438	-1256.170288085938	185.6912231445312	826.8603515625	-1307.990600585938	257.3655395507812	847.0922241210938	-1297.140747070312	87.31173706054688	1449.5107421875	-749.8411865234375	55.34805679321289	1381.319580078125	-689.997802734375	-7.460520267486572	1099.485717773438	-663.7891845703125	11.14087867736816	1093.567626953125	-760.1900634765625	86.10127258300781	852.5550537109375	-659.1427001953125	0.7174753546714783	849.5210571289062	-633.310791015625	0.0672844797372818	1025.234375	-643.931396484375	64.52310180664062	662.6204833984375	-690.1665649414062	87.92388153076172	754.0930786132812	-650.8981323242188	9.557629585266113	762.3812255859375	-634.5753173828125	72.63141632080078	1626.675415039062	-850.2101440429688	263.0807189941406	1701.055541992188	-922.9259033203125	228.94580078125	1681.360229492188	-799.8297729492188	98.03144073486328	1654.804565429688	-981.8407592773438	66.32137298583984	975.7109985351562	-1122.072631835938	152.250732421875	975.0331420898438	-760.6693725585938	228.143798828125	1003.706481933594	-822.8314819335938	201.8636474609375	1005.373046875	-1080.216430664062	-31.90422058105469	499.6672973632812	-1118.600830078125	9.640927314758301	639.5744018554688	-1131.913452148438	-356.8856811523438	131.5833740234375	-1080.518188476562	-188.4018402099609	323.3572692871094	-1115.21728515625	-189.5845184326172	40.08893966674805	-1108.171997070312	-205.0788726806641	48.57389068603516	-1052.869018554688	-296.0149230957031	55.54378128051758	-1137.982421875	-370.1409301757812	169.5260467529297	-1005.209594726562	333.7683715820312	514.3511352539062	-824.1917724609375	263.4889526367188	772.9644775390625	-767.849609375	361.7840576171875	31.38387870788574	-881.4194946289062	377.6375122070312	401.236572265625	-848.602294921875	572.3577270507812	76.75257110595703	-865.067138671875	537.57080078125	62.43111419677734	-919.1702270507812	460.2171936035156	42.38805770874023	-824.4727783203125	328.5736694335938	30.41201400756836	-959.0888671875	
401	4	1.362272381782532	1019.682250976562	-869.4939575195312	-3.892871141433716	1030.6865234375	-992.7780151367188	-0.7895597815513611	1063.262451171875	-929.4808959960938	266.5727233886719	1264.424194335938	-921.2689819335938	-31.52191734313965	1222.806640625	-937.1856079101562	46.03647994995117	1488.751953125	-930.5228881835938	243.9828033447266	1379.719360351562	-922.2550659179688	-32.74106216430664	1310.213256835938	-838.3410034179688	42.20033264160156	1472.67041015625	-1032.028076171875	122.7868499755859	1463.67822265625	-1105.500854492188	88.73497772216797	1339.3955078125	-1190.649780273438	105.5238037109375	1129.678344726562	-1236.4794921875	68.89374542236328	1098.8125	-1163.54052734375	248.1383666992188	916.2801513671875	-1252.192260742188	163.6307525634766	889.1549072265625	-1286.236206054688	129.6795349121094	1024.20166015625	-1267.0302734375	270.5895385742188	756.5304565429688	-1249.000732421875	192.6468048095703	826.4617919921875	-1301.1259765625	264.7499694824219	845.7099609375	-1290.747436523438	96.60702514648438	1451.929077148438	-748.2708129882812	64.34757232666016	1383.79443359375	-688.63037109375	2.221753120422363	1101.767578125	-662.6763916015625	21.64600372314453	1095.958251953125	-758.9189453125	97.08897399902344	855.235107421875	-657.6458129882812	11.59548282623291	851.7830810546875	-632.1967163085938	10.0187349319458	1027.501831054688	-642.7467041015625	76.52782440185547	665.193603515625	-689.0836791992188	99.35455322265625	756.753173828125	-649.5716552734375	20.97194671630859	764.6458740234375	-633.5042114257812	82.98801422119141	1628.93408203125	-848.0159301757812	273.9950561523438	1703.388793945312	-919.0467529296875	239.0189514160156	1683.3583984375	-796.3684692382812	109.3963928222656	1657.514282226562	-979.3369140625	80.43012237548828	977.2545166015625	-1120.29150390625	163.5015716552734	977.7476806640625	-758.0116577148438	239.6746520996094	1006.827514648438	-819.4755249023438	215.4941101074219	1007.263488769531	-1076.909057617188	-14.04267501831055	499.32421875	-1121.204956054688	26.45549583435059	639.82421875	-1132.54931640625	-348.1278991699219	140.0363311767578	-1081.593505859375	-174.5753173828125	326.3034973144531	-1117.671508789062	-188.7019958496094	39.45134735107422	-1108.6455078125	-201.8917388916016	49.13801956176758	-1053.66796875	-292.1775817871094	60.17802047729492	-1138.455932617188	-359.0835876464844	179.0670471191406	-1006.632751464844	343.3480224609375	515.69287109375	-824.1331176757812	274.5653076171875	774.5104370117188	-765.4873657226562	362.9554443359375	31.95193862915039	-881.3644409179688	385.6871948242188	401.5139465332031	-849.3014526367188	574.7344360351562	74.23226165771484	-868.112060546875	538.793212890625	60.38156890869141	-921.5560302734375	462.3284912109375	42.53020477294922	-825.7276000976562	327.9840698242188	31.19322204589844	-958.6085815429688	
